<svg
  xmlns="http://www.w3.org/2000/svg"
  viewBox="0 0 1600 1200"
  width="1600"
  height="1200"
  fill="none"
  aria-hidden="true"
  focusable="false"
>
  <g stroke-linecap="round" stroke-linejoin="round" stroke-width="0.85">
    <g stroke="#a89065">
      <path
        d="M658-94C823 127 1078-59 1238 61C1381 168 1309 320 1447 423C1571 515 1519 646 1682 735"
        stroke-opacity="0.19"
      />
      <path
        d="M705-97C862 110 1100-48 1259 77C1397 185 1332 331 1467 438C1584 531 1546 660 1702 757"
        stroke-opacity="0.25"
      />
      <path
        d="M789-102C928 78 1141-23 1303 110C1431 216 1376 355 1508 470C1612 561 1599 690 1741 801"
        stroke-opacity="0.16"
      />
    </g>
    <g stroke="#1a2744">
      <path
        d="M746-100C895 95 1121-36 1280 94C1414 201 1355 343 1487 454C1598 546 1572 675 1721 779"
        stroke-opacity="0.12"
      />
      <path
        d="M833-105C960 62 1161-8 1324 127C1448 232 1398 367 1528 486C1626 576 1626 705 1760 823"
        stroke-opacity="0.17"
      />
      <path
        d="M879-109C993 45 1180 9 1346 144C1465 248 1421 380 1549 503C1640 592 1652 721 1780 846"
        stroke-opacity="0.1"
      />
    </g>
    <g stroke="#a89065">
      <path
        d="M-107 613C81 664 30 850 174 935C298 1008 407 950 467 1082C509 1175 642 1135 708 1263"
        stroke-opacity="0.21"
      />
      <path
        d="M-122 662C54 709 12 881 158 965C280 1036 386 984 447 1114C490 1203 613 1172 678 1290"
        stroke-opacity="0.14"
      />
    </g>
    <g stroke="#1a2744">
      <path
        d="M-115 637C68 687 20 866 166 950C289 1022 397 967 457 1098C500 1189 627 1153 693 1277"
        stroke-opacity="0.11"
      />
      <path
        d="M-130 687C41 731 5 897 150 980C271 1050 375 1001 437 1130C480 1218 599 1190 663 1304"
        stroke-opacity="0.17"
      />
    </g>
  </g>
</svg>
