<svg
  xmlns="http://www.w3.org/2000/svg"
  width="148"
  height="32"
  viewBox="0 0 148 32"
  fill="none"
>
  <path
    d="M2 22c30 0 48-2 68-8 17-5 29-8 43-7 12 1 22 4 32 4"
    stroke="#a89065"
    stroke-width="1.1"
  />
  <path
    d="M8 26c29-1 51-5 74-12 16-5 35-6 55-2"
    stroke="#a89065"
    stroke-opacity=".4"
    stroke-width=".65"
  />
  <path
    d="M79 12c4-6 10-10 19-10-4 7-10 10-19 10Z"
    fill="#a89065"
    fill-opacity=".18"
    stroke="#856838"
    stroke-width=".65"
  />
  <path
    d="M92 9c8 0 14 3 18 9-9 0-15-3-18-9Z"
    fill="#a89065"
    fill-opacity=".2"
    stroke="#856838"
    stroke-width=".65"
  />
  <path
    d="m83 9 10-5m4 7 9 5"
    stroke="#856838"
    stroke-opacity=".6"
    stroke-width=".5"
  />
</svg>
