<svg
  class="contact-glyph contact-glyph-save"
  viewBox="0 0 64 64"
  fill="none"
  xmlns="http://www.w3.org/2000/svg"
  aria-hidden="true"
  focusable="false"
>
  <path d="M9 18 35 5 57 19 54 45 29 59 7 44Z" fill="#F0ECE4" />
  <path d="M35 5 57 19 34 32 9 18Z" fill="#F4EFE4" />
  <path d="m34 32 20 13-25 14-22-15Z" fill="#A89065" fill-opacity=".12" />
  <g stroke-width="1.5" stroke-linecap="round" stroke-linejoin="round">
    <path d="m18 14 30-4 4 39-31 6-6-4Z" fill="#A89065" stroke="#856838" />
    <path d="m20 11 27-4 4 39-30 6-6-3-2-34Z" fill="#1A2744" stroke="#1A2744" />
    <path d="m20 11 27-4 4 39-27 5Z" fill="#F4EFE4" stroke="#1A2744" />
    <path d="m17 15 3 30m6 6 23-4m-21 7 22-4" stroke="#A89065" />
    <path
      d="m47 15 4-1 1 7-4 1m1 5 4-1 1 7-4 1"
      fill="#A89065"
      stroke="#856838"
    />
    <path
      d="M39 23c.3 3-1.3 5.4-3.6 5.6-2.3.3-4.3-1.7-4.6-4.7-.3-2.9 1.2-5.3 3.5-5.6 2.4-.3 4.4 1.7 4.7 4.7Z"
      fill="#A89065"
      stroke="#1A2744"
    />
    <path
      d="M28 39c0-5 2.7-8.2 7.8-8.8 5-.6 8.3 2.1 9 7.1Z"
      fill="#1A2744"
      stroke="#1A2744"
    />
    <path d="m29 44 11-2" stroke="#A89065" />
    <path d="m17 21-5 1m6 9-5 1m6 9-5 1" stroke="#D4B050" />
  </g>
</svg>
